<svg width="230" height="230" viewBox="0 0 230 230" fill="none" xmlns="http://www.w3.org/2000/svg">
<g clip-path="url(#clip0_45_55)">
<path d="M30.5835 132.572C31.0461 135.311 30.6496 137.485 29.3939 139.094C28.1365 140.694 26.1385 141.724 23.3999 142.187L19.4184 142.859C16.7009 143.318 14.491 142.998 12.7886 141.899C11.0845 140.79 10.002 138.871 9.54124 136.143C9.40959 135.363 9.3527 134.642 9.37057 133.978C9.38844 133.314 9.45912 132.706 9.5826 132.154C9.69377 131.594 9.83757 131.098 10.014 130.668L13.6103 129.735C13.3361 130.421 13.1279 131.176 12.9857 132.002C12.8435 132.828 12.8604 133.762 13.0366 134.805C13.2999 136.364 13.9336 137.454 14.9377 138.075C15.9418 138.696 17.2391 138.872 18.8296 138.604L22.5267 137.979C24.1066 137.713 25.2732 137.115 26.0263 136.186C26.7689 135.259 27.0023 133.979 26.7265 132.346C26.554 131.324 26.264 130.442 25.8567 129.698C25.4494 128.954 24.9923 128.3 24.4853 127.736L28.2515 127.425C28.5579 127.763 28.867 128.182 29.1789 128.682C29.4803 129.183 29.7564 129.76 30.0072 130.411C30.2562 131.051 30.4483 131.772 30.5835 132.572Z" fill="#582BAF"/>
<path d="M20.3529 111.03L17.5309 111.823L17.6195 110.834C16.3791 110.433 15.431 109.823 14.7751 109.003C14.1193 108.182 13.8514 107.102 13.9714 105.761C13.9962 105.485 14.0398 105.237 14.1024 105.017C14.1543 104.796 14.215 104.598 14.2844 104.422L18.39 104.564C18.2945 104.792 18.2171 105.058 18.1575 105.364C18.0873 105.669 18.037 105.991 18.0065 106.332C17.9093 107.417 18.0659 108.364 18.4761 109.173C18.8872 109.971 19.5128 110.59 20.3529 111.03ZM29.4598 111.733L29.094 115.819L13.4378 114.417L13.7864 110.523L18.5745 111.128L18.751 110.774L29.4598 111.733Z" fill="#582BAF"/>
<path d="M17.3007 90.1339L18.7234 86.2865L27.5903 89.5654C28.2015 89.7914 28.7671 89.9095 29.2873 89.9196C29.8011 89.916 30.2537 89.7701 30.645 89.482C31.0299 89.1802 31.3428 88.7037 31.5836 88.0524C31.8022 87.4613 31.886 86.9114 31.8349 86.4028C31.7838 85.8942 31.6348 85.4348 31.3879 85.0245C31.1309 84.6106 30.8061 84.257 30.4134 83.9638L32.7247 84.1351L32.4579 84.8565C33.0399 85.2539 33.526 85.7412 33.9162 86.3183C34.3001 86.8816 34.5269 87.5464 34.5967 88.3124C34.6702 89.0685 34.5272 89.9325 34.1679 90.9043C33.7529 92.0265 33.1985 92.8636 32.5046 93.4156C31.8144 93.9577 30.9856 94.2434 30.018 94.2728C29.0541 94.2922 27.956 94.0741 26.7237 93.6184L17.3007 90.1339ZM20.8519 80.5305L22.2746 76.6832L37.0177 82.135L35.6006 85.9673L32.0738 84.5094L31.7026 84.543L20.8519 80.5305Z" fill="#582BAF"/>
<path d="M51.5497 60.0444L49.06 63.3044L41.5595 57.5762C41.0331 57.1742 40.5238 56.8995 40.0315 56.7521C39.5458 56.5962 39.0736 56.5985 38.615 56.759C38.1563 56.9195 37.7131 57.2799 37.2852 57.8403C36.9091 58.3327 36.6676 58.8337 36.5606 59.3434C36.4601 59.8446 36.4719 60.3308 36.596 60.8019C36.7181 61.258 36.9248 61.6914 37.216 62.102L35.0442 61.2499L35.511 60.6386C35.0629 60.0814 34.7381 59.4771 34.5365 58.8258C34.3414 58.1661 34.324 57.4673 34.4843 56.7295C34.6425 55.9766 35.0361 55.1885 35.665 54.365C36.3976 53.4057 37.1734 52.7683 37.9923 52.4528C38.8027 52.1308 39.6714 52.102 40.5985 52.3665C41.5321 52.6225 42.5252 53.1524 43.5779 53.9564L51.5497 60.0444ZM45.3353 68.1817L42.8456 71.4417L30.3531 61.9013L32.8428 58.6412L35.7891 61.0929L36.1537 61.1698L45.3353 68.1817Z" fill="#582BAF"/>
<path d="M65.6782 48.2116C63.7291 49.6542 61.901 50.2098 60.1939 49.8784C58.4954 49.5407 56.9567 48.4402 55.5777 46.577L54.4338 45.0314C53.0612 43.1768 52.469 41.389 52.6573 39.6682C52.8456 37.9474 53.91 36.3689 55.8505 34.9328C56.3571 34.5578 56.8612 34.2512 57.3626 34.013C57.8663 33.7598 58.3493 33.5685 58.8116 33.439C59.2825 33.3031 59.7125 33.2108 60.1017 33.162L62.4216 35.7309C61.8038 35.7761 61.1663 35.9024 60.5091 36.1097C59.8605 36.3107 59.197 36.6622 58.5187 37.1642C57.454 37.9522 56.876 38.8052 56.7847 39.7234C56.6956 40.6265 57.0355 41.5976 57.8044 42.6365L58.8148 44.0018C59.5774 45.0321 60.4185 45.6389 61.3382 45.8221C62.2664 45.9989 63.2629 45.6934 64.3276 44.9054C65.0059 44.4033 65.5435 43.8726 65.9401 43.3133C66.3304 42.7453 66.6578 42.1641 66.9223 41.5697L68.7107 44.5519C68.4679 45.1037 68.0956 45.7049 67.5936 46.3555C67.098 47.0146 66.4596 47.6333 65.6782 48.2116Z" fill="#582BAF"/>
<path d="M93.2922 34.0414L89.447 35.4698L86.1606 26.6228C85.9299 26.0019 85.6458 25.4978 85.3082 25.1105C84.9806 24.7194 84.58 24.4693 84.1065 24.3603C83.633 24.2513 83.0658 24.3196 82.4049 24.5651C81.8241 24.7809 81.3575 25.0738 81.005 25.4441C80.6525 25.8143 80.4031 26.2318 80.2566 26.6964C80.1164 27.1473 80.0649 27.6223 80.1022 28.1212L78.5399 26.3085L79.4562 25.9682C79.3846 25.254 79.4374 24.5678 79.6145 23.9095C79.7915 23.2511 80.1447 22.6527 80.674 22.1142C81.1996 21.5657 81.938 21.1148 82.8893 20.7614C84.0208 20.3411 85.017 20.216 85.8779 20.3862C86.7351 20.5464 87.4852 20.9857 88.1281 21.7041C88.781 22.4188 89.3381 23.3969 89.7994 24.6386L93.2922 34.0414ZM83.6942 37.6068L79.849 39.0352L72.4726 19.1782L76.3028 17.7554L77.9879 22.2916L79.6146 26.9007L79.8107 27.1526L83.6942 37.6068Z" fill="#582BAF"/>
<path d="M106.837 10.9989L107.972 24.8042L104.55 25.2016L102.46 11.5071L106.837 10.9989ZM107.079 31.9733C106.293 32.0645 105.692 31.93 105.273 31.57C104.865 31.198 104.618 30.646 104.533 29.9138L104.514 29.7547C104.429 29.0225 104.544 28.4339 104.858 27.9888C105.181 27.5318 105.735 27.2578 106.52 27.1666C107.284 27.0779 107.876 27.2188 108.296 27.5895C108.724 27.9484 108.981 28.4939 109.066 29.2261L109.085 29.3852C109.17 30.1174 109.045 30.7125 108.711 31.1707C108.387 31.6171 107.843 31.8846 107.079 31.9733Z" fill="#582BAF"/>
<path d="M128.462 9.85725C129.291 9.93325 130.051 10.0726 130.74 10.2752C131.43 10.4778 132.037 10.705 132.561 10.9568L132.647 14.054C132.202 13.8738 131.734 13.7183 131.241 13.5874C130.761 13.4468 130.223 13.3493 129.627 13.2947C128.914 13.2294 128.343 13.2576 127.914 13.3791C127.495 13.5017 127.187 13.7041 126.989 13.9863C126.792 14.2686 126.675 14.6118 126.638 15.0161L126.633 15.0639C126.607 15.3512 126.625 15.6263 126.686 15.8894C126.748 16.1525 126.828 16.3905 126.927 16.6033L124.253 16.455L124.293 16.0241C123.825 15.7453 123.441 15.3616 123.143 14.873C122.844 14.3844 122.726 13.7997 122.789 13.1188L122.796 13.0391C122.899 11.9115 123.412 11.0574 124.334 10.4768C125.267 9.89713 126.643 9.69062 128.462 9.85725ZM125.766 31.3806L121.697 31.0079L122.963 17.1896L127.032 17.5623L125.766 31.3806ZM131.709 20.0824L120.507 19.0564L120.804 15.8172L124.758 16.2116L126.357 16.3258L132.356 16.8754L131.709 20.0824Z" fill="#582BAF"/>
<path d="M148.233 32.9309L150.296 33.6794L147.91 33.8196L156.125 22.6861L160.086 24.123L146.505 41.7813L142.634 40.3771L147.587 33.9581L148.855 36.0544L144.547 34.4917L145.385 18.7904L149.376 20.2383L148.233 32.9309Z" fill="#582BAF"/>
<path d="M164.985 45.3735C164.324 44.9404 163.951 44.4472 163.867 43.8939C163.782 43.3405 163.942 42.7556 164.345 42.1389L164.433 42.0049C164.843 41.3793 165.318 40.9947 165.859 40.8509C166.4 40.7072 167.001 40.8519 167.663 41.2849C168.315 41.7121 168.688 42.2053 168.781 42.7645C168.875 43.3237 168.717 43.9161 168.307 44.5417L168.219 44.6757C167.816 45.2924 167.339 45.6696 166.789 45.8075C166.239 45.9453 165.638 45.8007 164.985 45.3735Z" fill="#582BAF"/>
<path d="M191.688 72.4049C190.173 70.0774 189.67 67.9253 190.181 65.9487C190.697 63.981 192.119 62.2395 194.446 60.7241L197.83 58.5209C200.14 57.0172 202.294 56.4302 204.294 56.7601C206.299 57.0989 208.056 58.4276 209.566 60.7462C209.997 61.4086 210.337 62.0479 210.585 62.6639C210.833 63.2799 211.01 63.8655 211.117 64.4207C211.238 64.9791 211.304 65.4909 211.314 65.9562L208.387 68.2443C208.365 67.5063 208.255 66.7303 208.056 65.9163C207.858 65.1023 207.47 64.2522 206.893 63.366C206.03 62.0411 205.015 61.2938 203.846 61.124C202.678 60.9543 201.418 61.3095 200.066 62.1896L196.924 64.2354C195.581 65.1096 194.749 66.1228 194.429 67.2748C194.117 68.421 194.413 69.6879 195.316 71.0755C195.881 71.9438 196.499 72.6379 197.169 73.1578C197.839 73.6777 198.519 74.0954 199.209 74.411L195.878 76.197C195.462 76.0088 195.012 75.7476 194.527 75.4135C194.05 75.0735 193.568 74.6549 193.078 74.1577C192.595 73.6695 192.131 73.0853 191.688 72.4049Z" fill="#582BAF"/>
<path d="M209.655 88.087L211.927 86.2353L212.24 87.1781C213.538 87.0514 214.65 87.2335 215.579 87.7244C216.507 88.2154 217.183 89.0996 217.607 90.377C217.695 90.6406 217.754 90.8856 217.784 91.1119C217.824 91.3349 217.847 91.541 217.854 91.7302L214.032 93.2354C214.029 92.9888 213.993 92.7135 213.926 92.4094C213.869 92.1019 213.787 91.786 213.679 91.4615C213.336 90.4274 212.815 89.6211 212.116 89.0426C211.421 88.4743 210.601 88.1557 209.655 88.087ZM201.022 91.0709L199.73 87.1778L214.648 82.2256L215.88 85.9361L211.247 87.2884L211.226 87.6836L201.022 91.0709Z" fill="#582BAF"/>
<path d="M220.78 106.037L221.008 110.133L211.569 110.658C210.918 110.694 210.352 110.812 209.871 111.01C209.401 111.218 209.044 111.532 208.8 111.952C208.567 112.382 208.47 112.944 208.509 113.637C208.544 114.266 208.686 114.804 208.936 115.25C209.185 115.696 209.505 116.058 209.895 116.336C210.295 116.613 210.734 116.808 211.211 116.921L209.023 117.685L208.98 116.917C208.288 116.784 207.648 116.531 207.06 116.157C206.484 115.793 206.011 115.274 205.642 114.599C205.273 113.935 205.06 113.085 205.002 112.051C204.936 110.856 205.111 109.868 205.527 109.085C205.944 108.313 206.591 107.72 207.466 107.308C208.343 106.906 209.437 106.669 210.749 106.596L220.78 106.037ZM221.349 116.26L221.577 120.356L205.882 121.23L205.655 117.15L209.471 117.082L209.798 116.903L221.349 116.26Z" fill="#582BAF"/>
<path d="M201.356 147.281L202.34 143.299L211.502 145.565C212.145 145.724 212.722 145.773 213.232 145.712C213.74 145.661 214.172 145.471 214.529 145.141C214.885 144.811 215.148 144.304 215.317 143.62C215.466 143.018 215.488 142.462 215.383 141.952C215.276 141.452 215.071 141.011 214.77 140.629C214.476 140.259 214.114 139.944 213.683 139.683L216.014 139.599L215.83 140.346C216.463 140.679 217.001 141.103 217.446 141.62C217.888 142.148 218.182 142.782 218.329 143.522C218.484 144.276 218.437 145.156 218.188 146.162C217.898 147.333 217.441 148.227 216.815 148.843C216.2 149.461 215.415 149.833 214.459 149.96C213.501 150.097 212.379 150.007 211.093 149.689L201.356 147.281ZM203.814 137.342L204.798 133.36L220.057 137.133L219.073 141.115L215.394 140.04L215.029 140.115L203.814 137.342Z" fill="#582BAF"/>
<path d="M193.112 163.763C194.325 161.664 195.78 160.426 197.478 160.049C199.17 159.682 201.02 160.079 203.027 161.238L204.692 162.2C206.69 163.354 207.945 164.758 208.458 166.411C208.971 168.065 208.624 169.937 207.416 172.027C207.101 172.573 206.761 173.055 206.396 173.473C206.035 173.906 205.668 174.274 205.296 174.577C204.918 174.889 204.56 175.145 204.223 175.345L201.071 173.913C201.62 173.625 202.154 173.256 202.674 172.804C203.189 172.361 203.658 171.774 204.08 171.043C204.743 169.896 204.933 168.884 204.651 168.005C204.373 167.141 203.674 166.386 202.555 165.74L201.084 164.89C199.974 164.249 198.961 164.027 198.044 164.226C197.122 164.433 196.33 165.111 195.668 166.258C195.246 166.988 194.964 167.689 194.823 168.36C194.691 169.037 194.623 169.7 194.617 170.351L191.788 168.328C191.791 167.725 191.893 167.026 192.094 166.229C192.286 165.427 192.625 164.605 193.112 163.763Z" fill="#582BAF"/>
<path d="M173.429 187.762L176.387 184.92L182.926 191.725C183.385 192.203 183.846 192.552 184.31 192.773C184.767 193.001 185.234 193.071 185.711 192.982C186.189 192.893 186.682 192.605 187.191 192.116C187.637 191.687 187.949 191.232 188.124 190.752C188.3 190.272 188.363 189.79 188.312 189.305C188.261 188.836 188.119 188.38 187.886 187.937L190.041 188.977L189.336 189.654C189.686 190.281 189.911 190.931 190.011 191.606C190.111 192.28 190.026 192.97 189.755 193.674C189.491 194.387 188.994 195.095 188.262 195.798C187.391 196.634 186.528 197.146 185.67 197.333C184.82 197.527 183.957 197.423 183.081 197.021C182.198 196.625 181.297 195.95 180.379 194.995L173.429 187.762ZM180.812 180.668L183.77 177.826L198.447 193.1L195.501 195.931L192.148 192.442L188.819 188.862L188.539 188.709L180.812 180.668Z" fill="#582BAF"/>
<path d="M170.187 214.293L163.645 202.084L166.625 200.356L173.999 212.083L170.187 214.293ZM161.608 195.152C162.292 194.756 162.897 194.639 163.424 194.803C163.948 194.981 164.394 195.389 164.764 196.027L164.844 196.165C165.214 196.803 165.343 197.388 165.233 197.922C165.118 198.47 164.719 198.942 164.035 199.338C163.37 199.724 162.771 199.831 162.239 199.658C161.702 199.499 161.249 199.101 160.88 198.464L160.799 198.325C160.43 197.688 160.307 197.092 160.43 196.539C160.55 196 160.943 195.538 161.608 195.152Z" fill="#582BAF"/>
<path d="M150.808 223.957C150.016 224.218 149.264 224.393 148.551 224.481C147.838 224.57 147.191 224.604 146.61 224.581L145.297 221.775C145.777 221.763 146.268 221.719 146.772 221.643C147.269 221.581 147.801 221.456 148.369 221.268C149.049 221.044 149.561 220.791 149.907 220.508C150.242 220.229 150.444 219.921 150.513 219.583C150.582 219.245 150.552 218.884 150.425 218.498L150.41 218.453C150.32 218.179 150.194 217.933 150.033 217.717C149.871 217.5 149.703 217.314 149.528 217.158L152.039 216.229L152.175 216.639C152.715 216.709 153.219 216.908 153.688 217.237C154.156 217.566 154.497 218.056 154.711 218.705L154.736 218.781C155.091 219.856 154.961 220.844 154.347 221.744C153.722 222.647 152.543 223.385 150.808 223.957ZM144.705 203.142L148.585 201.862L152.93 215.041L149.049 216.32L144.705 203.142ZM143.756 215.872L154.438 212.35L155.457 215.439L151.673 216.653L150.161 217.185L144.439 219.071L143.756 215.872Z" fill="#582BAF"/>
<path d="M123.481 210.671L121.29 210.806L123.422 209.727L120.324 223.212L116.118 223.472L121.539 201.865L125.649 201.61L123.663 209.471L121.665 208.054L126.239 207.771L131.727 222.506L127.489 222.768L123.481 210.671Z" fill="#582BAF"/>
<path d="M103.158 205.933C103.937 206.067 104.476 206.371 104.774 206.845C105.072 207.318 105.159 207.919 105.034 208.645L105.007 208.803C104.88 209.54 104.598 210.082 104.159 210.429C103.72 210.777 103.111 210.884 102.332 210.75C101.563 210.618 101.025 210.314 100.716 209.839C100.407 209.363 100.316 208.757 100.443 208.02L100.47 207.862C100.595 207.135 100.882 206.599 101.331 206.254C101.781 205.908 102.39 205.801 103.158 205.933Z" fill="#582BAF"/>
<path fill-rule="evenodd" clip-rule="evenodd" d="M116.754 200.476C161.896 200.476 198.492 163.881 198.492 118.738C198.492 73.5954 161.896 37 116.754 37C71.611 37 35.0156 73.5954 35.0156 118.738C35.0156 163.881 71.611 200.476 116.754 200.476ZM67.5561 144.598C67.1263 144.004 66.21 144.12 65.9418 144.802L61.8902 155.111C61.8253 155.276 61.7145 155.419 61.5708 155.523L52.598 162.017C52.0041 162.446 52.1202 163.363 52.8024 163.631L63.111 167.683C63.276 167.747 63.419 167.858 63.523 168.002L70.0168 176.975C70.4465 177.569 71.3629 177.453 71.631 176.77L75.6826 166.462C75.7475 166.297 75.8583 166.154 76.002 166.05L84.9749 159.556C85.5687 159.126 85.4527 158.21 84.7704 157.942L74.4619 153.89C74.2968 153.825 74.1538 153.714 74.0499 153.571L67.5561 144.598ZM162.21 62.3139C162.63 61.6808 163.591 61.7927 163.854 62.5053L167.31 71.881C167.371 72.047 167.479 72.192 167.62 72.299L175.4 78.2014C175.962 78.6281 175.86 79.5019 175.215 79.7879L166.287 83.7447C166.125 83.8164 165.987 83.9328 165.89 84.0803L160.371 92.4108C159.951 93.044 158.99 92.932 158.728 92.2195L155.271 82.8438C155.21 82.6778 155.103 82.5327 154.962 82.4258L147.182 76.5234C146.619 76.0966 146.721 75.2229 147.367 74.9368L156.294 70.9801C156.456 70.9084 156.594 70.7919 156.692 70.6444L162.21 62.3139ZM69.0316 89.8331C66.287 84.4396 65.0844 79.2264 65.0368 72.5174L65.0045 68.0246L69.0339 68.0031C73.8248 67.9773 77.582 68.5405 81.6489 69.8939C87.4837 71.836 91.2488 74.1935 95.9498 78.8474L99.1375 82.0031L98.9338 84.6256C98.4603 90.7169 99.0064 95.9205 100.707 101.523L101.693 104.772L99.7093 104.041C94.9155 102.273 87.2422 101.388 81.4118 101.931L79.1032 102.146L76.0429 99.0671C72.602 95.6061 70.6836 93.0795 69.0316 89.8331ZM74.0547 135.423C68.4143 133.515 65.3758 131.65 60.2513 126.949L56.2725 123.3L59.7424 119.837C63.7785 115.809 67.4542 113.231 71.5413 111.562C80.1846 108.033 90.4289 107.841 98.775 111.053C103.409 112.836 106.804 115.147 112.007 120.057C118.041 125.754 118.127 125.875 115.767 125.395C114.76 125.19 112.103 124.976 109.862 124.92C99.5836 124.661 90.064 127.816 82.1611 134.103C80.5199 135.408 79.0093 136.572 78.8043 136.69C78.5995 136.807 76.4618 136.237 74.0547 135.423ZM106.339 95.4708C104.624 86.5411 106.528 76.6585 111.406 69.1709C112.573 67.3794 114.327 65.3069 116.724 62.8848L120.301 59.2717L123.822 63.1199C129.389 69.2034 131.836 73.5737 133.381 80.1941C133.76 81.8218 133.705 82.0675 132.731 83.041C129.803 85.972 125.682 93.0746 124.071 97.9653C122.129 103.865 121.439 111.266 122.263 117.371L122.687 120.513L119.177 117.162C111.807 110.124 107.88 103.489 106.339 95.4708ZM96.7408 158.446C91.9261 156.826 88.0192 154.368 83.2174 149.937L79.2123 146.241L83.2164 142.536C87.6797 138.406 90.7056 136.32 94.5157 134.744C103.047 131.217 112.174 130.936 120.884 133.934C126.729 135.946 129.209 137.586 135.515 143.611L140.804 148.664L139.434 148.483C138.681 148.384 136.654 148.195 134.93 148.064C124.186 147.246 113.573 150.584 104.761 157.552C103.283 158.721 102.508 159.354 101.638 159.54C100.597 159.763 99.4198 159.348 96.7408 158.446ZM129.531 118.523C127.669 109.023 129.902 98.7618 135.56 90.8136C136.469 89.5378 138.585 87.097 140.263 85.3899L143.314 82.2857L146.974 86.2531C151.279 90.9188 153.831 94.9314 155.303 99.3511C156.262 102.231 156.746 103.432 156.546 104.506C156.362 105.494 155.598 106.374 154.092 108.356C146.834 117.907 143.768 129.109 145.344 140.319L145.853 143.938L142.275 140.359C134.483 132.568 131.172 126.894 129.531 118.523ZM131.575 183.821C121.785 183.605 114.577 180.583 106.699 173.389L102.817 169.844L106.285 166.38C115.526 157.151 127.141 153.544 139.57 156.041C146.851 157.504 151.488 159.978 157.615 165.667L161.74 169.498L157.362 173.6C152.417 178.231 150.174 179.664 144.852 181.591C140.289 183.243 136.237 183.924 131.575 183.821ZM157.365 153.962C150.444 142.102 150.618 127.281 157.812 115.886C158.953 114.079 160.547 112.187 163.142 109.562L166.845 105.816L170.375 109.655C174.72 114.383 177.237 118.458 178.949 123.541C181.643 131.541 181.527 139.745 178.609 147.807C176.666 153.174 175.241 155.406 170.602 160.359L166.5 164.738L162.669 160.613C160.005 157.744 158.39 155.718 157.365 153.962Z" fill="#582BAF"/>
</g>
<defs>
<clipPath id="clip0_45_55">
<rect width="230" height="230" fill="white"/>
</clipPath>
</defs>
</svg>
